<?xml version="1.0" encoding="UTF-8" standalone="no"?>
<svg width="82px" height="82px" viewBox="0 0 82 82" version="1.1" xmlns="http://www.w3.org/2000/svg" xmlns:xlink="http://www.w3.org/1999/xlink">
    <!-- Generator: sketchtool 41 (35326) - http://www.bohemiancoding.com/sketch -->
    <title>E9DB78AE-7903-4D2F-BA61-A41259862FF3</title>
    <desc>Created with sketchtool.</desc>
    <defs></defs>
    <g id="Part-2---End-User" stroke="none" stroke-width="1" fill="none" fill-rule="evenodd">
        <g id="Part-2---Dropdowns,-Buttons,-Overlays,-Avatars,-Divider-App,-Tooltips." transform="translate(-1126.000000, -124.000000)" fill="#CC413A">
            <g id="_Large-Modal-B" transform="translate(992.000000, 87.000000)">
                <g id="alert-critical" transform="translate(134.000000, 37.000000)">
                    <path d="M41,81.2631579 C63.2367281,81.2631579 81.2631579,63.2367281 81.2631579,41 C81.2631579,18.7632719 63.2367281,0.736842105 41,0.736842105 C18.7632719,0.736842105 0.736842105,18.7632719 0.736842105,41 C0.736842105,63.2367281 18.7632719,81.2631579 41,81.2631579 Z M41,75.8947368 C60.271831,75.8947368 75.8947368,60.271831 75.8947368,41 C75.8947368,21.728169 60.271831,6.10526316 41,6.10526316 C21.728169,6.10526316 6.10526316,21.728169 6.10526316,41 C6.10526316,60.271831 21.728169,75.8947368 41,75.8947368 Z" id="Combined-Shape"></path>
                    <g id="Page-1" transform="translate(39.631579, 26.421053)">
                        <polygon id="Stroke-2" points="0.248157895 19.3110526 2.61657895 19.3110526 2.61657895 0.363684211 0.248157895 0.363684211"></polygon>
                        <polygon id="Stroke-3" points="0.248157895 27.5815789 2.61657895 27.5815789 2.61657895 25.2131579 0.248157895 25.2131579"></polygon>
                    </g>
                </g>
            </g>
        </g>
    </g>
</svg>