<?xml version="1.0" encoding="UTF-8" standalone="no"?>
<svg width="15px" height="16px" viewBox="0 0 15 16" version="1.1" xmlns="http://www.w3.org/2000/svg" xmlns:xlink="http://www.w3.org/1999/xlink">
    <!-- Generator: sketchtool 39.1 (31720) - http://www.bohemiancoding.com/sketch -->
    <title>1665244A-8C1D-4017-8624-1C4FA100D6BC</title>
    <desc>Created with sketchtool.</desc>
    <defs></defs>
    <g id="Atoms---End-User" stroke="none" stroke-width="1" fill="none" fill-rule="evenodd">
        <g id="Part-2---Icons" transform="translate(-334.000000, -124.000000)" fill="#333333">
            <g id="icon-delete" transform="translate(333.000000, 124.000000)">
                <path d="M8.02904315,13.964 C8.19004315,13.964 8.32004315,13.834 8.32004315,13.673 L8.32004315,4.655 C8.32004315,4.494 8.19004315,4.364 8.02904315,4.364 C7.86804315,4.364 7.73804315,4.494 7.73804315,4.655 L7.73804315,13.673 C7.73804315,13.834 7.86804315,13.964 8.02904315,13.964 L8.02904315,13.964 Z M9.85304315,14.011 C9.86104315,14.013 9.87004315,14.013 9.87804315,14.013 C10.0270431,14.013 10.1550431,13.898 10.1670431,13.747 L10.9360431,4.777 C10.9500431,4.617 10.8310431,4.476 10.6710431,4.462 C10.5130431,4.448 10.3700431,4.567 10.3570431,4.727 L9.58804315,13.697 C9.57404315,13.857 9.69304315,13.998 9.85304315,14.011 L9.85304315,14.011 Z M6.20404315,14.013 C6.21204315,14.013 6.22104315,14.013 6.22904315,14.011 C6.38904315,13.998 6.50804315,13.857 6.49404315,13.697 L5.72604315,4.727 C5.71204315,4.567 5.57304315,4.448 5.41104315,4.462 C5.25104315,4.476 5.13204315,4.617 5.14604315,4.777 L5.91404315,13.747 C5.92804315,13.898 6.05504315,14.013 6.20404315,14.013 L6.20404315,14.013 Z M12.1020431,14.546 C12.1020431,15.027 11.7100431,15.419 11.2290431,15.419 L4.53804315,15.419 C4.05704315,15.419 3.66504315,15.027 3.66504315,14.527 L2.88004315,2.913 L12.8900431,2.879 L12.1020431,14.546 Z M5.99304315,1.455 C5.99304315,0.973 6.39204315,0.782 6.87304315,0.782 L8.62304315,0.782 C9.10404315,0.782 9.48404315,0.973 9.48404315,1.455 L9.48404315,2.037 L5.99304315,2.037 L5.99304315,1.455 Z M14.7200431,2.037 L10.0650431,2.037 L10.0650431,1.455 C10.0650431,0.653 9.41304315,0 8.61104315,0 L6.86504315,0 C6.06304315,0 5.41104315,0.653 5.41104315,1.455 L5.41104315,2.037 L1.04704315,2.037 C0.886043146,2.037 1.17704315,2.98 1.33804315,2.98 L2.21704315,2.98 L3.08304315,14.546 C3.08304315,15.348 3.73604315,16 4.53804315,16 L11.2290431,16 C12.0310431,16 12.6840431,15.348 12.6830431,14.566 L13.7810431,2.98 L15.0110431,2.98 C15.1720431,2.98 14.8810431,2.037 14.7200431,2.037 L14.7200431,2.037 Z" id="Fill-1"></path>
            </g>
        </g>
    </g>
</svg>