<?xml version="1.0" encoding="UTF-8" standalone="no"?>
<svg width="16px" height="17px" viewBox="0 0 16 17" version="1.1" xmlns="http://www.w3.org/2000/svg" xmlns:xlink="http://www.w3.org/1999/xlink">
    <!-- Generator: sketchtool 39.1 (31720) - http://www.bohemiancoding.com/sketch -->
    <title>18C10513-2C41-4B18-8B37-F4770EB3AD2D</title>
    <desc>Created with sketchtool.</desc>
    <defs></defs>
    <g id="Atoms---End-User" stroke="none" stroke-width="1" fill="none" fill-rule="evenodd">
        <g id="Part-2---Icons" transform="translate(-615.000000, -80.000000)" fill="#333333">
            <g id="icon-left" transform="translate(615.000000, 80.874700)">
                <path d="M7.984,15.094 C3.899,15.094 0.781,11.959 0.781,7.875 C0.781,3.79 3.915,0.938 8,0.938 C12.084,0.938 15.187,3.853 15.187,7.938 C15.187,12.022 12.068,15.094 7.984,15.094 M7.906,0 C3.495,0 0,3.464 0,7.875 C0,12.286 3.588,15.875 8,15.875 C12.411,15.875 16,12.286 16,7.875 C16,3.464 12.317,0 7.906,0" id="Fill-1"></path>
                <polygon id="Fill-4" points="7.251 5.579 6.436 5 4.898 7.164 4 7.164 4 8.164 4.719 8.164 6.443 10.464 7.243 9.865 5.968 8.164 11 8.164 11 7.211 5.984 7.211"></polygon>
            </g>
        </g>
    </g>
</svg>