<?xml version="1.0" encoding="UTF-8" standalone="no"?>
<svg width="14px" height="16px" viewBox="0 0 14 16" version="1.1" xmlns="http://www.w3.org/2000/svg" xmlns:xlink="http://www.w3.org/1999/xlink">
    <!-- Generator: sketchtool 39.1 (31720) - http://www.bohemiancoding.com/sketch -->
    <title>F4F9AD04-03F9-4445-B888-1F31EF7549AE</title>
    <desc>Created with sketchtool.</desc>
    <defs></defs>
    <g id="Atoms---End-User" stroke="none" stroke-width="1" fill="none" fill-rule="evenodd">
        <g id="Part-2---Icons" transform="translate(-436.000000, -160.000000)" fill="#333333">
            <g id="icon-export" transform="translate(435.000000, 160.000000)">
                <path d="M7.90994529,2.82356609 C4.44555085,2.82356609 1.62811974,5.63817066 1.62811974,9.09816826 C1.62811974,10.7743058 2.28136428,12.3502582 3.46756841,13.5348921 C3.77252055,13.8395301 4.10322559,14.1093076 4.45497265,14.3413978 C3.75587537,13.5223297 3.33723356,12.4598651 3.33723356,11.2943889 C3.33723356,8.74296655 5.34156366,6.68210567 7.9005235,6.60327664 C7.9834353,6.59668138 8.06760335,6.63248421 8.12884503,6.69152746 C8.1900867,6.75057072 8.22431923,6.83222629 8.22431923,6.91702245 L8.22431923,8.51213254 L13.9383245,4.7057269 L8.22431923,0.899949372 L8.22431923,2.51013433 C8.22431923,2.5933602 8.19102888,2.67313141 8.13229968,2.73154654 C8.07325643,2.7905898 7.99379928,2.82356609 7.91025935,2.82356609 L7.90994529,2.82356609 Z M7.91025935,15.999948 L7.908375,15.999948 C6.06327325,15.999948 4.32840652,15.2826353 3.02348775,13.9789727 C1.71856899,12.6749961 1,10.9420138 1,9.09816826 C1,5.39697267 3.93112078,2.36692303 7.59619948,2.20298378 L7.59619948,0.313599592 C7.59619948,0.198025559 7.65995364,0.091559263 7.7620231,0.0369128453 C7.86409255,-0.0177335723 7.98846026,-0.011138315 8.08456258,0.0529298988 L14.6788777,4.44474314 C14.7661864,4.50315828 14.8186343,4.6008309 14.8186343,4.7057269 C14.8186343,4.81062289 14.7661864,4.90860957 14.6788777,4.96702471 L8.08456258,9.35946607 C7.98846026,9.42353429 7.86409255,9.42950142 7.7620231,9.37485501 C7.65995364,9.32052265 7.59619948,9.21437041 7.59619948,9.09816826 L7.59619948,7.25306651 C5.53565267,7.47604902 3.96535331,9.19301434 3.96535331,11.2943889 C3.96535331,13.502858 5.70273252,15.2886024 7.92030927,15.3592659 C8.08958754,15.3646049 8.22431923,15.5034193 8.22431923,15.6726976 C8.22431923,15.8457446 8.08393446,15.999948 7.91025935,15.999948 L7.91025935,15.999948 Z" id="Page-1"></path>
            </g>
        </g>
    </g>
</svg>