<?xml version="1.0" encoding="UTF-8" standalone="no"?>
<svg width="16px" height="16px" viewBox="0 0 16 16" version="1.1" xmlns="http://www.w3.org/2000/svg" xmlns:xlink="http://www.w3.org/1999/xlink">
    <!-- Generator: sketchtool 39.1 (31720) - http://www.bohemiancoding.com/sketch -->
    <title>C11166E0-2840-4AD2-82A4-5FC334CDBDE9</title>
    <desc>Created with sketchtool.</desc>
    <defs>
        <polygon id="path-1" points="7.99985 16 0 16 0 0 7.99985 0 15.9997 0 15.9997 16 7.99985 16"></polygon>
        <polygon id="path-3" points="0 16 16 16 16 0 0 0"></polygon>
    </defs>
    <g id="Atoms---End-User" stroke="none" stroke-width="1" fill="none" fill-rule="evenodd">
        <g id="Part-2---Icons" transform="translate(-615.000000, -44.000000)">
            <g id="icon-print" transform="translate(615.000000, 44.000000)">
                <mask id="mask-2" fill="white">
                    <use xlink:href="#path-1"></use>
                </mask>
                <g id="Clip-2"></g>
                <path d="M11.344,3 L4.572,3 L4.572,0.857 C4.572,0.7 4.7,0.812 4.857,0.812 L11.058,0.812 C11.216,0.812 11.344,0.7 11.344,0.857 L11.344,3 Z M12,0.773 C12,0.301 11.901,0 11.429,0 L4.857,0 C4.385,0 4,0.384 4,0.857 L4,3 L12,3 L12,0.773 Z M10.572,13.143 L5,13.143 C4.842,13.143 4.715,13.396 4.715,13.554 C4.715,13.712 4.842,13.84 5,13.84 L10.572,13.84 C10.73,13.84 10.857,13.712 10.857,13.554 C10.857,13.396 10.73,13.143 10.572,13.143 L10.572,13.143 Z M11.206,14.825 C11.206,14.982 11.448,15.125 11.291,15.125 L4.857,15.125 C4.7,15.125 5,15.157 5,15 L5,12.333 C5,12.175 4.7,11.887 4.857,11.887 L11.291,11.887 C11.448,11.887 11.206,12 11.206,12.158 L11.206,14.825 Z M11.429,11.063 L4.857,11.063 C4.385,11.063 4,11.7 4,12.172 L4,14.84 C4,15.312 4.385,16 4.857,16 L11.429,16 C11.901,16 12,15.338 12,14.865 L12,12.198 C12,11.725 11.901,11.063 11.429,11.063 L11.429,11.063 Z M15,12 L12,12 L11.815,9.125 L4.101,9.125 L4,12 L1,12 L1,11 L1,5 C1,3.897 1.469,4 2.572,4 L13.429,4 C14.532,4 15,3.897 15,5 L15,12 Z M13.429,3.125 L2.572,3.125 C1.154,3.125 0,4.582 0,6 L0,10.572 C0,11.989 0.989,12.844 2.406,12.844 L3.429,12.84 L3.429,11.601 C3.429,11.128 3.67,9.937 4.143,9.937 L11.857,9.937 C12.33,9.937 12.857,11.128 12.857,11.601 L12.857,12.84 L13.429,12.84 C14.847,12.84 15.688,12.469 16,10.572 L16,6 C16,4.582 14.847,3.125 13.429,3.125 L13.429,3.125 Z" id="Fill-1" fill="#333333" mask="url(#mask-2)"></path>
                <mask id="mask-4" fill="white">
                    <use xlink:href="#path-3"></use>
                </mask>
                <g id="Clip-5"></g>
                <polygon id="Fill-4" fill="#333333" mask="url(#mask-4)" points="9 7 11 7 11 5 9 5"></polygon>
            </g>
        </g>
    </g>
</svg>