<?xml version="1.0" encoding="UTF-8" standalone="no"?>
<svg width="16px" height="17px" viewBox="0 0 16 17" version="1.1" xmlns="http://www.w3.org/2000/svg" xmlns:xlink="http://www.w3.org/1999/xlink">
    <!-- Generator: sketchtool 39.1 (31720) - http://www.bohemiancoding.com/sketch -->
    <title>6D77613B-8F28-4CEB-9DFD-5337E74627E9</title>
    <desc>Created with sketchtool.</desc>
    <defs>
        <polygon id="path-1" points="15.9995 15.874 15.9995 0 0 1.77635684e-15 0 15.874 15.9995 15.874"></polygon>
    </defs>
    <g id="Atoms---End-User" stroke="none" stroke-width="1" fill="none" fill-rule="evenodd">
        <g id="Part-2---Icons" transform="translate(-615.000000, -122.000000)">
            <g id="icon-right" transform="translate(615.000000, 122.874700)">
                <mask id="mask-2" fill="white">
                    <use xlink:href="#path-1"></use>
                </mask>
                <g id="Clip-2"></g>
                <path d="M0.812,7.937 C0.812,3.852 3.915,0.937 7.999,0.937 C12.084,0.937 15.218,3.789 15.218,7.874 C15.218,11.958 12.1,15.093 8.015,15.093 C3.931,15.093 0.812,12.021 0.812,7.937 M0,7.875 C0,12.286 3.588,15.874 7.999,15.874 C12.411,15.874 16,12.286 16,7.875 C16,3.463 12.504,0 8.093,0 C3.682,0 0,3.463 0,7.875" id="Fill-1" fill="#333333" mask="url(#mask-2)"></path>
                <polygon id="Fill-4" fill="#333333" mask="url(#mask-2)" points="8.749 5.579 9.564 5 11.102 7.164 12 7.164 12 8.164 11.281 8.164 9.557 10.464 8.757 9.865 10.032 8.164 5 8.164 5 7.211 10.016 7.211"></polygon>
            </g>
        </g>
    </g>
</svg>