<?xml version="1.0" encoding="UTF-8" standalone="no"?>
<svg width="16px" height="16px" viewBox="0 0 16 16" version="1.1" xmlns="http://www.w3.org/2000/svg" xmlns:xlink="http://www.w3.org/1999/xlink">
    <!-- Generator: sketchtool 39.1 (31720) - http://www.bohemiancoding.com/sketch -->
    <title>29C5C51F-DC3A-499A-AC03-17C8C34F3082</title>
    <desc>Created with sketchtool.</desc>
    <defs></defs>
    <g id="Atoms---End-User" stroke="none" stroke-width="1" fill="none" fill-rule="evenodd">
        <g id="Part-2---Icons" transform="translate(-333.000000, -163.000000)" fill="#333333">
            <g id="icon-follow" transform="translate(333.000000, 163.000000)">
                <path d="M5.161,1.13686838e-13 L0,5.161 L1.806,6.968 L2.838,5.936 L6.967,10.064 L4.386,12.645 L6.967,15.226 L10.838,11.354 L15.483,16 L16,15.484 L11.354,10.839 L15.226,6.968 L12.645,4.387 L10.064,6.968 L5.935,2.839 L6.967,1.806 L5.161,1.13686838e-13 Z M1.032,5.161 L5.161,1.032 L5.935,1.806 L3.87,3.871 L2.322,5.419 L2.322,5.419 L1.806,5.936 L1.032,5.161 Z M3.355,5.419 L5.418,3.354 L9.548,7.484 L7.881,9.151 L7.484,9.548 L3.355,5.419 Z M5.418,12.645 L7.483,10.58 L7.484,10.58 L9.032,9.032 L12.645,5.419 L14.193,6.968 L6.967,14.194 L5.418,12.645 Z" id="pin"></path>
            </g>
        </g>
    </g>
</svg>