<?xml version="1.0" encoding="UTF-8" standalone="no"?>
<svg width="14px" height="16px" viewBox="0 0 14 16" version="1.1" xmlns="http://www.w3.org/2000/svg" xmlns:xlink="http://www.w3.org/1999/xlink">
    <!-- Generator: sketchtool 40.3 (33839) - http://www.bohemiancoding.com/sketch -->
    <title>6F3AB34F-619D-475F-A38C-F03FF3C9CB47</title>
    <desc>Created with sketchtool.</desc>
    <defs></defs>
    <g id="Part-2---End-User" stroke="none" stroke-width="1" fill="none" fill-rule="evenodd">
        <g id="Part-2---Icons" transform="translate(-306.000000, -43.000000)" fill="#333333">
            <g id="icon-unlock" transform="translate(305.000000, 43.000000)">
                <path d="M1.76,15.125 L1.75,8.958 L14,8.958 L14.052,15.125 L1.76,15.125 Z M14,8 L11.886,8 L11.021,8 L9,8 L5,8 L5,4 C4.969,1.281 5.984,0.854 7.91,0.854 L7.964,0.854 C9.89,0.854 11.041,1.5 11.041,4.133 L11.036,5 L11.925,5 L11.937,4.104 C11.937,1.825 10.243,0 7.964,0 L7.91,0 C5.631,0 4.017,1.534 4.017,4.062 L4,8 L1,8 L1,16 L14.833,16 L14.833,8 L14,8 Z" id="Page-1"></path>
            </g>
        </g>
    </g>
</svg>