<?xml version="1.0" encoding="UTF-8" standalone="no"?>
<svg width="14px" height="16px" viewBox="0 0 14 16" version="1.1" xmlns="http://www.w3.org/2000/svg" xmlns:xlink="http://www.w3.org/1999/xlink">
    <!-- Generator: sketchtool 39.1 (31720) - http://www.bohemiancoding.com/sketch -->
    <title>44AD49A4-D352-4228-BFD2-FA8FEFB66FF3</title>
    <desc>Created with sketchtool.</desc>
    <defs></defs>
    <g id="Atoms---End-User" stroke="none" stroke-width="1" fill="none" fill-rule="evenodd">
        <g id="Part-2---Icons" transform="translate(-332.000000, -43.000000)" fill="#333333">
            <g id="icon-lock" transform="translate(331.000000, 43.000000)">
                <path d="M1.76,15.125 L1.75,8.958 L14,8.958 L14.052,15.125 L1.76,15.125 Z M4.812,4.133 C4.812,1.854 5.984,0.854 7.91,0.854 L7.964,0.854 C9.89,0.854 11.041,1.5 11.041,4.133 L11.021,8 L4.792,8 L4.812,4.133 Z M11.886,8 L11.937,4.104 C11.937,1.825 10.243,0 7.964,0 L7.91,0 C5.631,0 3.979,1.534 3.979,4.062 L3.962,8 L1,8 L1,16 L14.833,16 L14.833,8 L11.886,8 Z" id="Fill-1"></path>
                <polygon id="Fill-4" points="7 13 9 13 9 11 7 11"></polygon>
            </g>
        </g>
    </g>
</svg>