<?xml version="1.0" encoding="UTF-8" standalone="no"?>
<svg width="16px" height="16px" viewBox="0 0 16 16" version="1.1" xmlns="http://www.w3.org/2000/svg" xmlns:xlink="http://www.w3.org/1999/xlink">
    <!-- Generator: sketchtool 39.1 (31720) - http://www.bohemiancoding.com/sketch -->
    <title>5690CDCD-9DBC-426D-A42E-7F774A26651F</title>
    <desc>Created with sketchtool.</desc>
    <defs></defs>
    <g id="Atoms---End-User" stroke="none" stroke-width="1" fill="none" fill-rule="evenodd">
        <g id="Part-2---Icons" transform="translate(-436.000000, -122.000000)" fill="#333333">
            <g id="icon-favorite" transform="translate(436.000000, 122.000000)">
                <path d="M7.99992717,12.1232282 C8.05341777,12.1232282 8.1072427,12.1359322 8.15571856,12.1620089 L12.2925484,14.3450943 L11.5022247,9.72049698 C11.4835029,9.61150987 11.5199434,9.50018254 11.5985078,9.42262116 L14.9453482,6.14732443 L10.3204166,5.47233984 C10.2114295,5.45662697 10.1171523,5.3874235 10.0683421,5.28880019 L7.99992717,1.08142963 L5.93151226,5.28880019 C5.88270208,5.3874235 5.7887592,5.45662697 5.67977209,5.47233984 L1.05484048,6.14732443 L4.40134658,9.42262116 C4.48024522,9.50018254 4.51635138,9.61150987 4.49762967,9.72049698 L3.70764027,14.3450943 L7.84413577,12.1620089 C7.89294595,12.1359322 7.94643656,12.1232282 7.99992717,12.1232282 M12.7371891,15.2962241 C12.6840328,15.2962241 12.6305422,15.2831858 12.5813977,15.2571091 L7.99992717,12.839668 L3.41845667,15.2571091 C3.30579208,15.3172861 3.16905672,15.3075909 3.06575298,15.2317011 C2.96278357,15.1568142 2.91096454,15.0291054 2.93236078,14.9030682 L3.80760084,9.78067392 L0.101036091,6.15334213 C0.00976774234,6.06374536 -0.0229952545,5.93001884 0.0164540682,5.80899634 C0.0559033909,5.6869709 0.160544391,5.59837708 0.286581634,5.57998968 L5.40864157,4.83245845 L7.69971113,0.172757945 C7.81237573,-0.0575859816 8.18747861,-0.0575859816 8.3001432,0.172757945 L10.5912128,4.83245845 L15.7132727,5.57998968 C15.8393099,5.59837708 15.9442853,5.6869709 15.9834003,5.80899634 C16.0231839,5.93001884 15.9900866,6.06374536 15.8988182,6.15334213 L12.1922535,9.78067392 L13.0674935,14.9030682 C13.0888898,15.0291054 13.0370708,15.1568142 12.9341013,15.2317011 C12.8759303,15.2748279 12.8067268,15.2962241 12.7371891,15.2962241" id="Fill-1"></path>
            </g>
        </g>
    </g>
</svg>