<?xml version="1.0" encoding="UTF-8" standalone="no"?>
<svg width="16px" height="16px" viewBox="0 0 16 16" version="1.1" xmlns="http://www.w3.org/2000/svg" xmlns:xlink="http://www.w3.org/1999/xlink">
    <!-- Generator: sketchtool 39.1 (31720) - http://www.bohemiancoding.com/sketch -->
    <title>0161FFD9-F09D-4FCA-98DA-EA340389BA00</title>
    <desc>Created with sketchtool.</desc>
    <defs></defs>
    <g id="Atoms---End-User" stroke="none" stroke-width="1" fill="none" fill-rule="evenodd">
        <g id="Part-2---Icons" transform="translate(-437.000000, -43.000000)" fill="#333333">
            <g id="icon-feed" transform="translate(437.000000, 43.000000)">
                <path d="M1.55464789,14.0449249 C0.887647886,13.3779249 0.892647886,12.2869249 1.56464789,11.6139249 C2.23764789,10.9419249 3.32764789,10.9369249 3.99564789,11.6039249 C4.66364789,12.2719249 4.65864789,13.3629249 3.98564789,14.0349249 C3.31264789,14.7079249 2.22264789,14.7129249 1.55464789,14.0449249 M4.74564789,10.8539249 C3.66764789,9.77592494 1.90764789,9.78192494 0.820647886,10.8689249 C-0.267352114,11.9559249 -0.274352114,13.7169249 0.804647886,14.7949249 C1.88264789,15.8739249 3.64364789,15.8669249 4.73064789,14.7789249 C5.81764789,13.6929249 5.82364789,11.9319249 4.74564789,10.8539249 M11.4116479,4.20892494 C8.56664789,1.35292494 4.84164789,-0.137075058 0.928647886,0.00992494197 C0.635647886,0.020924942 0.406647886,0.265924942 0.414647886,0.557924942 C0.423647886,0.849924942 0.667647886,1.07692494 0.959647886,1.06592494 C4.57664789,0.930924942 8.01964789,2.30992494 10.6596479,4.95892494 C13.3066479,7.61392494 14.8286479,11.2259249 14.9426479,15.1279249 C14.9466479,15.2739249 15.0096479,15.4039249 15.1086479,15.4959249 C15.2066479,15.5879249 15.3406479,15.6419249 15.4866479,15.6369249 C15.7786479,15.6249249 16.0086479,15.3799249 15.9996479,15.0879249 C15.8786479,10.9169249 14.2486479,7.05392494 11.4116479,4.20892494 M1.47264789,5.41992494 C1.18064789,5.43192494 0.950647886,5.67692494 0.959647886,5.96792494 C0.967647886,6.25992494 1.21064789,6.48792494 1.50364789,6.47692494 C5.93464789,6.31092494 9.65264789,10.0579249 9.79264789,14.8279249 C9.79664789,14.9729249 9.85964789,15.1039249 9.95864789,15.1949249 C10.0576479,15.2869249 10.1906479,15.3419249 10.3376479,15.3359249 C10.6286479,15.3249249 10.8586479,15.0799249 10.8496479,14.7879249 C10.6926479,9.43292494 6.48664789,5.23192494 1.47264789,5.41992494" id="Fill-1"></path>
            </g>
        </g>
    </g>
</svg>