<?xml version="1.0" encoding="UTF-8" standalone="no"?>
<svg width="16px" height="16px" viewBox="0 0 16 16" version="1.1" xmlns="http://www.w3.org/2000/svg" xmlns:xlink="http://www.w3.org/1999/xlink">
    <!-- Generator: sketchtool 40 (33762) - http://www.bohemiancoding.com/sketch -->
    <title>AD47E682-48EA-480C-9272-F49AC41C07E5</title>
    <desc>Created with sketchtool.</desc>
    <defs></defs>
    <g id="Part-2---End-User" stroke="none" stroke-width="1" fill="none" fill-rule="evenodd">
        <g id="Part-2---Icons" transform="translate(-616.000000, -189.000000)" fill="#333333">
            <g id="icon-globe" transform="translate(616.000000, 189.000000)">
                <path d="M13.869,12.529 C13.952,11.989 14.073,11.135 14.073,10.753 C14.073,10.178 14.073,9.583 13.767,8.971 C13.532,8.5 13.11,8.607 12.857,8.671 C12.593,8.738 12.343,8.801 12.016,8.584 C11.592,8.301 11.656,7.965 11.794,7.523 C11.835,7.393 11.87,7.281 11.868,7.197 C11.898,7.077 12.217,6.68 12.563,6.327 C12.928,6.208 13.374,6.088 13.507,6.088 C13.713,6.088 14.313,6.388 14.753,6.608 C15.003,6.733 15.182,6.792 15.322,6.81 C15.384,7.197 15.418,7.595 15.418,8 C15.418,9.704 14.839,11.275 13.869,12.529 L13.869,12.529 Z M8,15.418 C7.623,15.418 7.252,15.389 6.89,15.334 L6.891,15.276 C6.918,15.229 7.015,15.098 7.342,14.852 C7.7,14.584 7.967,14.405 8.181,14.261 C8.621,13.967 8.864,13.804 9.083,13.367 C9.379,12.775 9.39,12.448 9.391,12.165 C9.406,12.143 9.435,12.108 9.455,12.083 C9.56,11.957 9.736,11.746 9.677,11.464 C9.623,11.206 9.4,10.992 8.956,10.77 C8.317,10.45 7.571,10.03 6.972,9.691 C6.537,9.446 6.162,9.235 5.927,9.117 C5.721,9.014 5.619,8.86 5.489,8.665 C5.34,8.441 5.171,8.187 4.826,8.015 C4.584,7.894 4.381,7.861 4.247,7.84 C4.222,7.835 4.191,7.83 4.167,7.825 C4.164,7.805 4.161,7.772 4.161,7.725 C4.161,7.676 4.161,7.626 4.162,7.584 C4.251,7.56 4.38,7.52 4.551,7.434 C4.904,7.257 4.993,7.156 5.112,6.969 C5.17,6.877 5.242,6.763 5.453,6.554 C5.802,6.205 5.948,5.956 6.065,5.756 C6.138,5.63 6.191,5.54 6.279,5.452 C6.408,5.323 6.488,5.194 6.546,5.099 C6.573,5.055 6.611,4.995 6.623,4.987 C7.056,4.987 7.465,4.578 7.465,4.153 C7.47,4.118 7.517,4.021 7.548,3.958 C7.671,3.702 7.961,3.104 7.323,2.784 C6.956,2.6 6.598,2.417 6.4,2.316 L6.4,1.585 L5.96,0.873 L5.947,0.873 C6.233,0.79 6.525,0.723 6.824,0.676 C6.792,1.103 6.831,1.735 7.244,2.148 C7.443,2.348 7.606,2.549 7.749,2.726 C8.024,3.066 8.242,3.335 8.551,3.335 C9.58,3.335 10.218,3.24 10.218,2.768 C10.218,2.613 10.357,1.983 10.465,1.54 L10.853,1.153 C11.529,1.435 12.154,1.814 12.711,2.273 C12.532,2.326 12.339,2.413 12.192,2.56 C11.933,2.82 11.861,3.342 11.842,3.652 C11.692,3.736 11.575,3.89 11.563,4.106 C11.527,4.174 11.401,4.325 11.324,4.417 C11.059,4.736 10.83,5.011 11.016,5.267 C11.2,5.519 11.553,5.405 11.961,5.241 C12.66,4.962 12.947,4.818 13.085,4.75 C13.092,4.746 13.1,4.742 13.106,4.739 C13.189,4.966 13.427,4.987 13.521,4.988 C13.53,4.992 13.56,5.021 13.578,5.039 C13.661,5.12 13.801,5.256 14.057,5.256 C14.161,5.256 14.327,5.369 14.404,5.444 L14.489,5.527 L14.993,5.527 C15.066,5.732 15.131,5.941 15.186,6.153 C15.134,6.139 15.077,6.12 15.012,6.087 C14.289,5.726 13.827,5.506 13.507,5.506 C13.2,5.506 12.459,5.748 12.313,5.797 L12.248,5.818 L12.2,5.867 C11.784,6.282 11.288,6.847 11.288,7.17 C11.286,7.198 11.259,7.286 11.239,7.35 C11.121,7.73 10.874,8.521 11.693,9.067 C12.235,9.429 12.695,9.312 13,9.235 C13.078,9.215 13.191,9.188 13.219,9.189 C13.219,9.189 13.23,9.198 13.246,9.231 C13.491,9.72 13.491,10.222 13.491,10.753 C13.491,11.153 13.428,12.479 13.398,13.08 C12.044,14.518 10.126,15.418 8,15.418 L8,15.418 Z M0.582,8 C0.582,7.537 0.627,7.084 0.708,6.644 C0.774,7.327 0.99,7.986 1.538,8.26 C1.953,8.468 2.325,8.673 2.654,8.855 C3.327,9.227 3.635,9.392 3.87,9.392 C4.368,9.392 4.405,9.495 4.405,9.652 C4.405,9.777 4.304,9.91 4.186,10.064 C3.963,10.357 3.657,10.758 3.87,11.396 C3.912,11.523 3.948,11.638 3.981,11.741 C4.165,12.329 4.267,12.653 4.842,12.94 C4.918,12.979 4.99,13.011 5.056,13.043 C5.438,13.22 5.507,13.252 5.507,13.782 C5.507,14.203 5.429,14.629 5.358,14.93 C2.569,13.863 0.582,11.16 0.582,8 L0.582,8 Z M2.969,2.554 L3.483,3.068 C3.391,3.216 3.308,3.418 3.343,3.635 C3.367,3.782 3.455,3.988 3.74,4.13 C3.971,4.246 4.17,4.283 4.34,4.283 C4.527,4.283 4.679,4.237 4.798,4.201 C4.867,4.18 4.931,4.16 4.972,4.16 C5.538,4.16 5.538,3.378 5.538,3.044 C5.538,2.737 5.296,1.996 5.248,1.851 L4.989,1.454 L5.635,1.454 L5.818,1.75 L5.818,2.67 L5.976,2.752 C5.976,2.752 6.51,3.028 7.062,3.304 C7.158,3.352 7.187,3.367 7.024,3.704 C6.952,3.853 6.883,3.994 6.883,4.145 C6.883,4.259 6.738,4.405 6.623,4.405 C6.291,4.405 6.152,4.629 6.051,4.793 C6,4.875 5.948,4.96 5.867,5.041 C5.727,5.181 5.647,5.317 5.563,5.461 C5.457,5.642 5.337,5.846 5.041,6.142 C4.786,6.397 4.41,6.209 4.344,6.312 C4.277,6.418 4.537,6.791 4.291,6.914 C4.136,6.992 4.036,7.016 3.963,7.034 C3.579,7.13 3.579,7.354 3.579,7.725 C3.579,8.275 3.863,8.367 4.154,8.414 C4.271,8.433 4.403,8.454 4.566,8.536 C4.772,8.638 4.875,8.793 5.005,8.988 C5.154,9.212 5.323,9.465 5.667,9.637 C5.889,9.748 6.258,9.957 6.686,10.198 C7.291,10.539 8.044,10.964 8.695,11.29 C9.05,11.467 9.103,11.572 9.107,11.572 C9.1,11.601 9.042,11.67 9.008,11.712 C8.919,11.819 8.809,11.951 8.809,12.133 C8.809,12.391 8.809,12.614 8.563,13.107 C8.413,13.406 8.273,13.5 7.857,13.778 C7.637,13.926 7.363,14.109 6.993,14.386 C6.663,14.634 6.339,14.92 6.305,15.22 C6.173,15.189 6.042,15.155 5.912,15.117 C5.994,14.782 6.088,14.285 6.088,13.781 C6.088,12.924 5.789,12.74 5.301,12.513 C5.239,12.485 5.173,12.453 5.102,12.417 C4.748,12.24 4.707,12.108 4.536,11.562 C4.502,11.455 4.465,11.333 4.421,11.201 C4.312,10.872 4.43,10.683 4.649,10.396 C4.808,10.188 4.987,9.931 4.987,9.61 C4.987,9.052 4.612,8.727 3.875,8.727 L3.875,8.727 C3.755,8.727 3.319,8.517 2.935,8.304 C2.602,8.119 2.224,7.953 1.798,7.739 C1.063,7.372 1.271,5.411 1.402,4.752 L1.339,4.74 C1.745,3.913 2.3,3.173 2.969,2.554 L2.969,2.554 Z M4.872,1.275 C4.896,1.264 4.921,1.253 4.946,1.242 L4.946,1.388 L4.872,1.275 Z M3.414,2.176 C3.71,1.942 4.025,1.73 4.355,1.543 L4.708,2.071 C4.83,2.442 4.956,2.908 4.956,3.044 C4.956,3.319 4.94,3.499 4.908,3.582 C4.808,3.59 4.717,3.617 4.629,3.644 C4.443,3.701 4.282,3.75 4,3.61 C3.954,3.586 3.92,3.559 3.917,3.542 C3.907,3.479 3.994,3.333 4.076,3.25 L4.282,3.044 L3.414,2.176 Z M10.252,0.932 L9.94,1.243 L9.921,1.322 C9.878,1.492 9.683,2.283 9.644,2.658 C9.544,2.693 9.269,2.754 8.57,2.756 C8.5,2.729 8.328,2.515 8.202,2.36 C8.057,2.181 7.876,1.958 7.655,1.737 C7.382,1.463 7.374,0.948 7.414,0.607 C7.608,0.591 7.803,0.581 8,0.581 C8.785,0.581 9.541,0.705 10.252,0.932 L10.252,0.932 Z M13.217,2.779 L13.217,2.732 L13.217,2.779 Z M14.758,4.946 L14.716,4.946 C14.583,4.84 14.329,4.675 14.042,4.673 C14.033,4.669 14.003,4.64 13.985,4.623 C13.919,4.558 13.816,4.457 13.644,4.419 C13.577,4.153 13.318,4.129 13.231,4.129 C13.048,4.129 13.002,4.14 12.825,4.229 C12.704,4.289 12.462,4.41 11.892,4.642 C12.045,4.45 12.134,4.312 12.144,4.16 L12.418,4.158 L12.417,3.867 C12.416,3.526 12.49,3.084 12.603,2.972 C12.757,2.818 13.108,2.78 13.218,2.779 L13.218,2.732 C13.857,3.366 14.381,4.115 14.758,4.946 L14.758,4.946 Z M8,0 C3.589,0 0,3.589 0,8 C0,12.411 3.589,16 8,16 C12.411,16 16,12.411 16,8 C16,3.589 12.411,0 8,0 L8,0 Z" id="Fill-1"></path>
            </g>
        </g>
    </g>
</svg>