<?xml version="1.0" encoding="UTF-8" standalone="no"?>
<svg width="17px" height="16px" viewBox="0 0 17 16" version="1.1" xmlns="http://www.w3.org/2000/svg" xmlns:xlink="http://www.w3.org/1999/xlink">
    <!-- Generator: sketchtool 39.1 (31720) - http://www.bohemiancoding.com/sketch -->
    <title>FB24EC9F-2ABE-4BB3-805F-06F5970061BF</title>
    <desc>Created with sketchtool.</desc>
    <defs></defs>
    <g id="Atoms---End-User" stroke="none" stroke-width="1" fill="none" fill-rule="evenodd">
        <g id="Part-2---Icons" transform="translate(-331.000000, -82.000000)" fill="#333333">
            <g id="icon-edit" transform="translate(331.000000, 82.000000)">
                <path d="M14.3473333,6.55625419 L14.3223333,6.58125419 L9.49033333,1.76525419 L9.51533333,1.73925419 C10.8343333,0.42425419 12.9843333,0.42825419 14.3073333,1.74625419 L14.3403333,1.78025419 C15.6633333,3.09925419 15.6673333,5.24125419 14.3473333,6.55625419 L14.3473333,6.55625419 Z M1.18233333,10.0372542 C1.19233333,10.0262542 1.20233333,10.0232542 1.21233333,10.0162542 L7.87933333,3.37025419 L8.95333333,4.43525419 L3.03533333,10.3272542 L3.02933333,10.3272542 L0.957333333,10.2612542 C1.03433333,10.1872542 1.10933333,10.1162542 1.18233333,10.0372542 L1.18233333,10.0372542 Z M8.41633333,2.83525419 L8.95333333,2.30025419 L13.7853333,7.11725419 L13.2483333,7.65225419 L8.41633333,2.83525419 Z M6.02233333,14.8502542 C6.01533333,14.8622542 6.01033333,14.8752542 5.99833333,14.8872542 C5.94033333,14.9442542 5.88233333,15.0002542 5.82333333,15.0562542 L5.75333333,13.0582542 L5.75633333,12.9792542 L11.6373333,7.11725419 L12.7113333,8.18725419 L6.03133333,14.8462542 L6.03133333,14.8452542 C6.02933333,14.8472542 6.02533333,14.8482542 6.02233333,14.8502542 L6.02233333,14.8502542 Z M11.1013333,6.58125419 L5.03933333,12.6242542 L3.51433333,12.5712542 L3.45933333,10.9872542 L9.49033333,4.97625419 L11.1013333,6.58125419 Z M2.09333333,14.0002542 C1.89133333,13.7982542 1.23233333,14.2372542 0.852333333,14.2932542 L1.09333333,11.0002542 L3.09333333,11.0002542 L3.09333333,13.0002542 L5.09333333,13.0002542 L5.09333333,15.0002542 L1.74533333,15.2462542 C1.81233333,14.8682542 2.30133333,14.2072542 2.09333333,14.0002542 L2.09333333,14.0002542 Z M14.8763333,1.24625419 L14.8423333,1.21225419 C13.2233333,-0.40074581 10.5923333,-0.40474581 8.97833333,1.20425419 L0.127333333,10.0262542 L0.199333333,10.0702542 C0.118333333,10.1392542 0.0933333333,10.2382542 0.0933333333,10.3542542 L0.0933333333,15.6522542 C0.0933333333,15.8612542 -0.116666667,16.0002542 0.0933333333,16.0002542 L5.40833333,16.0002542 C5.52433333,16.0002542 5.62433333,15.9592542 5.69333333,15.8782542 L5.71233333,15.9042542 L14.8843333,7.08825419 C16.3453333,5.62725419 16.4953333,2.86025419 14.8763333,1.24625419 L14.8763333,1.24625419 Z" id="Fill-1"></path>
            </g>
        </g>
    </g>
</svg>